<svg width="490" height="377" viewBox="0 0 490 377" fill="none" xmlns="http://www.w3.org/2000/svg">
<path fill-rule="evenodd" clip-rule="evenodd" d="M12.4364 0.750883C1.4365 3.75088 -0.277915 10.1797 0.150657 45.3226C0.436371 70.7512 2.15051 86.1792 5.00766 88.0363C11.8647 92.322 24.0082 85.1792 23.4367 74.3223C22.7224 62.3223 21.2936 36.4655 21.0079 26.7512C19.7222 0.894026 19.1507 -1.10626 12.4364 0.750883ZM8.72201 119.036C0.579228 127.179 5.57909 181.608 15.0076 185.893C27.1504 191.465 32.7222 179.751 28.865 157.322C26.4364 143.465 25.4367 133.179 24.8653 125.036C24.2939 116.893 14.4363 113.322 8.72201 119.036ZM22.1504 223.751C14.1504 229.322 19.2933 259.322 34.2933 293.465C47.2933 323.036 65.2934 314.179 54.4363 283.465C49.1506 268.608 41.4366 244.893 37.5794 230.893C34.008 219.036 30.8647 217.608 22.1504 223.751ZM355.008 240.608C350.579 242.322 350.865 246.751 356.151 268.036C358.579 277.608 360.008 285.893 359.294 286.322C358.008 287.465 317.579 301.179 309.294 303.465C301.865 305.322 303.579 325.893 314.436 324.179C323.008 322.893 348.865 314.322 358.008 309.608C366.436 305.322 365.294 304.465 369.579 319.179C374.722 336.893 375.722 339.036 379.722 340.608C389.865 344.465 402.151 340.036 409.722 329.893C426.294 307.893 443.579 292.608 477.722 269.893C497.008 257.036 493.722 254.893 454.722 254.893C420.579 254.893 398.579 252.036 378.151 244.751C361.579 238.751 360.008 238.465 355.008 240.608ZM261.722 327.608C259.722 328.179 249.722 331.036 239.579 333.893C177.151 351.179 185.294 366.322 214.436 360.465C256.436 352.036 273.151 344.322 273.151 333.179C273.151 327.322 269.008 325.322 261.722 327.608ZM71.1509 340.893C60.8652 355.465 94.0081 373.751 134.865 375.893C175.008 378.036 178.436 355.751 146.865 354.465C124.151 353.465 110.436 350.751 92.1504 343.322C75.579 336.751 74.1509 336.608 71.1509 340.893Z" fill="#FAEB0B"/>
</svg>
