<svg width="1286" height="1292" viewBox="0 0 1286 1292" fill="none" xmlns="http://www.w3.org/2000/svg">
<path fill-rule="evenodd" clip-rule="evenodd" d="M612.515 45.006C556.143 29.6214 364.075 181.015 408.617 205.115C441.135 222.884 472.123 205.038 614.597 87.3786C648.147 60.4485 647.949 54.6763 612.515 45.006ZM368.511 245.63C319.818 230.817 182.507 406.429 215.593 440.871C237.761 463.947 274.422 434.689 341.999 338.647C398.603 257.781 399.466 254.968 368.511 245.63ZM670.225 839.912C626.876 813.342 639.578 895.842 689.245 967.337C701.309 984.226 710.744 998.996 711.119 1000.62C711.228 1003.83 630.925 960.44 538.51 908.155C391.098 824.596 363.195 858.022 510.499 938.375C624.313 1000.57 696.854 1040.82 699.5 1043.58C701.155 1045.3 693.847 1046.35 683.653 1046.88C537.004 1051.33 497.971 1057.7 501.803 1076.54C506.913 1104.74 549.76 1116.56 631.007 1112.69C752.722 1107.02 787.251 1108.95 858.715 1127.05C886.405 1134.23 875.489 1113.59 827.027 1068.09C753.507 998.977 723.537 952.933 708.929 889.48C704.7 868.377 693.698 854.45 670.225 839.912ZM254.958 753.39C289.699 789.554 301.151 788.487 335.107 792.289L333.412 780.009C332.533 772.909 319.656 750.844 303.225 727.554C265.688 674.871 248.937 623.413 247.945 556.815C247.661 548.479 246.45 541.032 244.818 539.952C137.3 456.48 156.692 651.096 254.958 753.39Z" fill="#FAEB0B"/>
</svg>
